<?xml version="1.0" standalone="no"?>
<!DOCTYPE svg PUBLIC "-//W3C//DTD SVG 20010904//EN"
 "http://www.w3.org/TR/2001/REC-SVG-20010904/DTD/svg10.dtd">
<svg version="1.0" xmlns="http://www.w3.org/2000/svg"
 width="600.000000pt" height="600.000000pt" viewBox="0 0 600.000000 600.000000"
 preserveAspectRatio="xMidYMid meet">
<metadata>
Created by potrace 1.14, written by Peter Selinger 2001-2017
</metadata>
<g transform="translate(0.000000,600.000000) scale(0.100000,-0.100000)"
fill="#000000" stroke="none">
<path d="M925 5105 c-83 -41 -124 -96 -150 -206 -12 -52 -14 -187 -14 -788 1
-399 0 -888 0 -1086 -1 -198 0 -476 0 -618 1 -142 -1 -260 -4 -263 -2 -2 -57
20 -121 51 -64 30 -128 55 -142 55 -60 0 -114 -57 -109 -116 5 -60 28 -78 203
-160 l168 -79 -2 -299 c-2 -164 -4 -299 -6 -300 -2 -2 -68 -33 -148 -71 -80
-38 -156 -75 -169 -84 -31 -20 -50 -67 -44 -108 5 -32 45 -82 67 -84 6 0 22
-2 35 -5 15 -3 66 16 140 51 136 64 145 66 147 40 1 -11 7 -46 14 -79 61 -291
215 -454 497 -525 213 -53 406 -62 1118 -48 398 8 812 8 1190 1 511 -11 715
-9 935 11 55 5 189 35 254 56 247 83 394 270 432 549 10 70 -2 71 167 -12 97
-47 128 -53 172 -33 58 28 77 104 41 160 -8 12 -59 44 -113 70 -54 26 -127 61
-163 79 -36 17 -66 32 -68 33 -8 3 -8 603 -1 603 7 0 190 85 287 133 73 37 97
102 61 168 -23 44 -105 62 -147 33 -12 -8 -22 -13 -22 -10 0 3 -41 -15 -91
-40 -49 -26 -93 -44 -96 -41 -4 5 -7 506 -2 532 1 6 1 13 1 16 -3 21 -3 83 0
137 2 35 0 66 -4 68 -4 3 -4 15 0 27 4 12 6 114 4 227 -2 113 -4 547 -6 965
-1 418 -6 776 -10 795 -19 84 -78 161 -149 194 -29 13 -54 17 -96 13 -53 -5
-132 -33 -139 -49 -2 -5 -10 -8 -19 -8 -8 0 -198 -183 -422 -406 -225 -223
-422 -415 -439 -426 -30 -18 -57 -19 -961 -19 -767 0 -935 2 -957 14 -14 7
-204 191 -422 409 -447 445 -476 469 -589 484 -27 3 -50 8 -53 9 -3 2 -28 -7
-55 -20z"/>
</g>
</svg>
